<mxfile host="app.diagrams.net" modified="2021-03-16T09:28:03.546Z" agent="5.0 (Macintosh; Intel Mac OS X 10_14_6) AppleWebKit/537.36 (KHTML, like Gecko) Chrome/89.0.4389.82 Safari/537.36" etag="VfY4ZWGQLPqQ01smXoih" version="14.4.6" type="github">
  <diagram id="-95N46nPh4N8Cc5MqHaX" name="Page-1">
    <mxGraphModel dx="1351" dy="877" grid="1" gridSize="10" guides="1" tooltips="1" connect="1" arrows="1" fold="1" page="1" pageScale="1" pageWidth="827" pageHeight="1169" math="0" shadow="0">
      <root>
        <mxCell id="0" />
        <mxCell id="1" parent="0" />
        <mxCell id="J6bTJGw2wVwXP5AzCXQQ-1" value="" style="shape=table;html=1;whiteSpace=wrap;startSize=0;container=1;collapsible=0;childLayout=tableLayout;" vertex="1" parent="1">
          <mxGeometry x="234" y="340" width="360" height="40" as="geometry" />
        </mxCell>
        <mxCell id="J6bTJGw2wVwXP5AzCXQQ-2" value="" style="shape=partialRectangle;html=1;whiteSpace=wrap;collapsible=0;dropTarget=0;pointerEvents=0;fillColor=none;top=0;left=0;bottom=0;right=0;points=[[0,0.5],[1,0.5]];portConstraint=eastwest;" vertex="1" parent="J6bTJGw2wVwXP5AzCXQQ-1">
          <mxGeometry width="360" height="40" as="geometry" />
        </mxCell>
        <mxCell id="J6bTJGw2wVwXP5AzCXQQ-3" value="1" style="shape=partialRectangle;html=1;whiteSpace=wrap;connectable=0;overflow=hidden;fillColor=none;top=0;left=0;bottom=0;right=0;" vertex="1" parent="J6bTJGw2wVwXP5AzCXQQ-2">
          <mxGeometry width="60" height="40" as="geometry" />
        </mxCell>
        <mxCell id="J6bTJGw2wVwXP5AzCXQQ-4" value="2" style="shape=partialRectangle;html=1;whiteSpace=wrap;connectable=0;overflow=hidden;fillColor=none;top=0;left=0;bottom=0;right=0;" vertex="1" parent="J6bTJGw2wVwXP5AzCXQQ-2">
          <mxGeometry x="60" width="60" height="40" as="geometry" />
        </mxCell>
        <mxCell id="J6bTJGw2wVwXP5AzCXQQ-5" value="4" style="shape=partialRectangle;html=1;whiteSpace=wrap;connectable=0;overflow=hidden;fillColor=none;top=0;left=0;bottom=0;right=0;" vertex="1" parent="J6bTJGw2wVwXP5AzCXQQ-2">
          <mxGeometry x="120" width="60" height="40" as="geometry" />
        </mxCell>
        <mxCell id="J6bTJGw2wVwXP5AzCXQQ-6" value="1" style="shape=partialRectangle;html=1;whiteSpace=wrap;connectable=0;overflow=hidden;fillColor=none;top=0;left=0;bottom=0;right=0;" vertex="1" parent="J6bTJGw2wVwXP5AzCXQQ-2">
          <mxGeometry x="180" width="60" height="40" as="geometry" />
        </mxCell>
        <mxCell id="J6bTJGw2wVwXP5AzCXQQ-7" value="3" style="shape=partialRectangle;html=1;whiteSpace=wrap;connectable=0;overflow=hidden;fillColor=none;top=0;left=0;bottom=0;right=0;" vertex="1" parent="J6bTJGw2wVwXP5AzCXQQ-2">
          <mxGeometry x="240" width="60" height="40" as="geometry" />
        </mxCell>
        <mxCell id="J6bTJGw2wVwXP5AzCXQQ-8" value="7" style="shape=partialRectangle;html=1;whiteSpace=wrap;connectable=0;overflow=hidden;fillColor=none;top=0;left=0;bottom=0;right=0;" vertex="1" parent="J6bTJGw2wVwXP5AzCXQQ-2">
          <mxGeometry x="300" width="60" height="40" as="geometry" />
        </mxCell>
        <mxCell id="J6bTJGw2wVwXP5AzCXQQ-9" value="" style="shape=table;html=1;whiteSpace=wrap;startSize=0;container=1;collapsible=0;childLayout=tableLayout;" vertex="1" parent="1">
          <mxGeometry x="230" y="420" width="480" height="40" as="geometry" />
        </mxCell>
        <mxCell id="J6bTJGw2wVwXP5AzCXQQ-10" value="" style="shape=partialRectangle;html=1;whiteSpace=wrap;collapsible=0;dropTarget=0;pointerEvents=0;fillColor=none;top=0;left=0;bottom=0;right=0;points=[[0,0.5],[1,0.5]];portConstraint=eastwest;" vertex="1" parent="J6bTJGw2wVwXP5AzCXQQ-9">
          <mxGeometry width="480" height="40" as="geometry" />
        </mxCell>
        <mxCell id="J6bTJGw2wVwXP5AzCXQQ-11" value="0" style="shape=partialRectangle;html=1;whiteSpace=wrap;connectable=0;overflow=hidden;fillColor=none;top=0;left=0;bottom=0;right=0;" vertex="1" parent="J6bTJGw2wVwXP5AzCXQQ-10">
          <mxGeometry width="60" height="40" as="geometry" />
        </mxCell>
        <mxCell id="J6bTJGw2wVwXP5AzCXQQ-12" value="2" style="shape=partialRectangle;html=1;whiteSpace=wrap;connectable=0;overflow=hidden;fillColor=none;top=0;left=0;bottom=0;right=0;" vertex="1" parent="J6bTJGw2wVwXP5AzCXQQ-10">
          <mxGeometry x="60" width="60" height="40" as="geometry" />
        </mxCell>
        <mxCell id="J6bTJGw2wVwXP5AzCXQQ-13" value="1" style="shape=partialRectangle;html=1;whiteSpace=wrap;connectable=0;overflow=hidden;fillColor=none;top=0;left=0;bottom=0;right=0;" vertex="1" parent="J6bTJGw2wVwXP5AzCXQQ-10">
          <mxGeometry x="120" width="60" height="40" as="geometry" />
        </mxCell>
        <mxCell id="J6bTJGw2wVwXP5AzCXQQ-14" value="1" style="shape=partialRectangle;html=1;whiteSpace=wrap;connectable=0;overflow=hidden;fillColor=none;top=0;left=0;bottom=0;right=0;" vertex="1" parent="J6bTJGw2wVwXP5AzCXQQ-10">
          <mxGeometry x="180" width="60" height="40" as="geometry" />
        </mxCell>
        <mxCell id="J6bTJGw2wVwXP5AzCXQQ-15" value="1" style="shape=partialRectangle;html=1;whiteSpace=wrap;connectable=0;overflow=hidden;fillColor=none;top=0;left=0;bottom=0;right=0;" vertex="1" parent="J6bTJGw2wVwXP5AzCXQQ-10">
          <mxGeometry x="240" width="60" height="40" as="geometry" />
        </mxCell>
        <mxCell id="J6bTJGw2wVwXP5AzCXQQ-16" value="0" style="shape=partialRectangle;html=1;whiteSpace=wrap;connectable=0;overflow=hidden;fillColor=none;top=0;left=0;bottom=0;right=0;" vertex="1" parent="J6bTJGw2wVwXP5AzCXQQ-10">
          <mxGeometry x="300" width="60" height="40" as="geometry" />
        </mxCell>
        <mxCell id="J6bTJGw2wVwXP5AzCXQQ-17" value="0" style="shape=partialRectangle;html=1;whiteSpace=wrap;connectable=0;overflow=hidden;fillColor=none;top=0;left=0;bottom=0;right=0;" vertex="1" parent="J6bTJGw2wVwXP5AzCXQQ-10">
          <mxGeometry x="360" width="60" height="40" as="geometry" />
        </mxCell>
        <mxCell id="J6bTJGw2wVwXP5AzCXQQ-18" value="1" style="shape=partialRectangle;html=1;whiteSpace=wrap;connectable=0;overflow=hidden;fillColor=none;top=0;left=0;bottom=0;right=0;" vertex="1" parent="J6bTJGw2wVwXP5AzCXQQ-10">
          <mxGeometry x="420" width="60" height="40" as="geometry" />
        </mxCell>
        <mxCell id="J6bTJGw2wVwXP5AzCXQQ-19" value="" style="shape=table;html=1;whiteSpace=wrap;startSize=0;container=1;collapsible=0;childLayout=tableLayout;" vertex="1" parent="1">
          <mxGeometry x="230" y="490" width="480" height="40" as="geometry" />
        </mxCell>
        <mxCell id="J6bTJGw2wVwXP5AzCXQQ-20" value="" style="shape=partialRectangle;html=1;whiteSpace=wrap;collapsible=0;dropTarget=0;pointerEvents=0;fillColor=none;top=0;left=0;bottom=0;right=0;points=[[0,0.5],[1,0.5]];portConstraint=eastwest;" vertex="1" parent="J6bTJGw2wVwXP5AzCXQQ-19">
          <mxGeometry width="480" height="40" as="geometry" />
        </mxCell>
        <mxCell id="J6bTJGw2wVwXP5AzCXQQ-21" value="0" style="shape=partialRectangle;html=1;whiteSpace=wrap;connectable=0;overflow=hidden;fillColor=none;top=0;left=0;bottom=0;right=0;" vertex="1" parent="J6bTJGw2wVwXP5AzCXQQ-20">
          <mxGeometry width="60" height="40" as="geometry" />
        </mxCell>
        <mxCell id="J6bTJGw2wVwXP5AzCXQQ-22" value="2" style="shape=partialRectangle;html=1;whiteSpace=wrap;connectable=0;overflow=hidden;fillColor=none;top=0;left=0;bottom=0;right=0;" vertex="1" parent="J6bTJGw2wVwXP5AzCXQQ-20">
          <mxGeometry x="60" width="60" height="40" as="geometry" />
        </mxCell>
        <mxCell id="J6bTJGw2wVwXP5AzCXQQ-23" value="3" style="shape=partialRectangle;html=1;whiteSpace=wrap;connectable=0;overflow=hidden;fillColor=none;top=0;left=0;bottom=0;right=0;" vertex="1" parent="J6bTJGw2wVwXP5AzCXQQ-20">
          <mxGeometry x="120" width="60" height="40" as="geometry" />
        </mxCell>
        <mxCell id="J6bTJGw2wVwXP5AzCXQQ-24" value="4" style="shape=partialRectangle;html=1;whiteSpace=wrap;connectable=0;overflow=hidden;fillColor=none;top=0;left=0;bottom=0;right=0;" vertex="1" parent="J6bTJGw2wVwXP5AzCXQQ-20">
          <mxGeometry x="180" width="60" height="40" as="geometry" />
        </mxCell>
        <mxCell id="J6bTJGw2wVwXP5AzCXQQ-25" value="5" style="shape=partialRectangle;html=1;whiteSpace=wrap;connectable=0;overflow=hidden;fillColor=none;top=0;left=0;bottom=0;right=0;" vertex="1" parent="J6bTJGw2wVwXP5AzCXQQ-20">
          <mxGeometry x="240" width="60" height="40" as="geometry" />
        </mxCell>
        <mxCell id="J6bTJGw2wVwXP5AzCXQQ-26" value="5" style="shape=partialRectangle;html=1;whiteSpace=wrap;connectable=0;overflow=hidden;fillColor=none;top=0;left=0;bottom=0;right=0;" vertex="1" parent="J6bTJGw2wVwXP5AzCXQQ-20">
          <mxGeometry x="300" width="60" height="40" as="geometry" />
        </mxCell>
        <mxCell id="J6bTJGw2wVwXP5AzCXQQ-27" value="5" style="shape=partialRectangle;html=1;whiteSpace=wrap;connectable=0;overflow=hidden;fillColor=none;top=0;left=0;bottom=0;right=0;" vertex="1" parent="J6bTJGw2wVwXP5AzCXQQ-20">
          <mxGeometry x="360" width="60" height="40" as="geometry" />
        </mxCell>
        <mxCell id="J6bTJGw2wVwXP5AzCXQQ-28" value="6" style="shape=partialRectangle;html=1;whiteSpace=wrap;connectable=0;overflow=hidden;fillColor=none;top=0;left=0;bottom=0;right=0;" vertex="1" parent="J6bTJGw2wVwXP5AzCXQQ-20">
          <mxGeometry x="420" width="60" height="40" as="geometry" />
        </mxCell>
        <mxCell id="J6bTJGw2wVwXP5AzCXQQ-29" value="" style="shape=table;html=1;whiteSpace=wrap;startSize=0;container=1;collapsible=0;childLayout=tableLayout;" vertex="1" parent="1">
          <mxGeometry x="720" y="580" width="360" height="40" as="geometry" />
        </mxCell>
        <mxCell id="J6bTJGw2wVwXP5AzCXQQ-30" value="" style="shape=partialRectangle;html=1;whiteSpace=wrap;collapsible=0;dropTarget=0;pointerEvents=0;fillColor=none;top=0;left=0;bottom=0;right=0;points=[[0,0.5],[1,0.5]];portConstraint=eastwest;" vertex="1" parent="J6bTJGw2wVwXP5AzCXQQ-29">
          <mxGeometry width="360" height="40" as="geometry" />
        </mxCell>
        <mxCell id="J6bTJGw2wVwXP5AzCXQQ-31" value="" style="shape=partialRectangle;html=1;whiteSpace=wrap;connectable=0;overflow=hidden;fillColor=none;top=0;left=0;bottom=0;right=0;" vertex="1" parent="J6bTJGw2wVwXP5AzCXQQ-30">
          <mxGeometry width="60" height="40" as="geometry" />
        </mxCell>
        <mxCell id="J6bTJGw2wVwXP5AzCXQQ-32" value="" style="shape=partialRectangle;html=1;whiteSpace=wrap;connectable=0;overflow=hidden;fillColor=none;top=0;left=0;bottom=0;right=0;" vertex="1" parent="J6bTJGw2wVwXP5AzCXQQ-30">
          <mxGeometry x="60" width="60" height="40" as="geometry" />
        </mxCell>
        <mxCell id="J6bTJGw2wVwXP5AzCXQQ-33" value="" style="shape=partialRectangle;html=1;whiteSpace=wrap;connectable=0;overflow=hidden;fillColor=none;top=0;left=0;bottom=0;right=0;" vertex="1" parent="J6bTJGw2wVwXP5AzCXQQ-30">
          <mxGeometry x="120" width="60" height="40" as="geometry" />
        </mxCell>
        <mxCell id="J6bTJGw2wVwXP5AzCXQQ-34" value="" style="shape=partialRectangle;html=1;whiteSpace=wrap;connectable=0;overflow=hidden;fillColor=none;top=0;left=0;bottom=0;right=0;" vertex="1" parent="J6bTJGw2wVwXP5AzCXQQ-30">
          <mxGeometry x="180" width="60" height="40" as="geometry" />
        </mxCell>
        <mxCell id="J6bTJGw2wVwXP5AzCXQQ-35" value="" style="shape=partialRectangle;html=1;whiteSpace=wrap;connectable=0;overflow=hidden;fillColor=none;top=0;left=0;bottom=0;right=0;" vertex="1" parent="J6bTJGw2wVwXP5AzCXQQ-30">
          <mxGeometry x="240" width="60" height="40" as="geometry" />
        </mxCell>
        <mxCell id="J6bTJGw2wVwXP5AzCXQQ-36" value="7" style="shape=partialRectangle;html=1;whiteSpace=wrap;connectable=0;overflow=hidden;fillColor=none;top=0;left=0;bottom=0;right=0;" vertex="1" parent="J6bTJGw2wVwXP5AzCXQQ-30">
          <mxGeometry x="300" width="60" height="40" as="geometry" />
        </mxCell>
        <mxCell id="J6bTJGw2wVwXP5AzCXQQ-37" value="" style="shape=table;html=1;whiteSpace=wrap;startSize=0;container=1;collapsible=0;childLayout=tableLayout;" vertex="1" parent="1">
          <mxGeometry x="230" y="580" width="480" height="40" as="geometry" />
        </mxCell>
        <mxCell id="J6bTJGw2wVwXP5AzCXQQ-38" value="" style="shape=partialRectangle;html=1;whiteSpace=wrap;collapsible=0;dropTarget=0;pointerEvents=0;fillColor=none;top=0;left=0;bottom=0;right=0;points=[[0,0.5],[1,0.5]];portConstraint=eastwest;" vertex="1" parent="J6bTJGw2wVwXP5AzCXQQ-37">
          <mxGeometry width="480" height="40" as="geometry" />
        </mxCell>
        <mxCell id="J6bTJGw2wVwXP5AzCXQQ-39" value="0" style="shape=partialRectangle;html=1;whiteSpace=wrap;connectable=0;overflow=hidden;fillColor=none;top=0;left=0;bottom=0;right=0;" vertex="1" parent="J6bTJGw2wVwXP5AzCXQQ-38">
          <mxGeometry width="60" height="40" as="geometry" />
        </mxCell>
        <mxCell id="J6bTJGw2wVwXP5AzCXQQ-40" value="2" style="shape=partialRectangle;html=1;whiteSpace=wrap;connectable=0;overflow=hidden;fillColor=none;top=0;left=0;bottom=0;right=0;" vertex="1" parent="J6bTJGw2wVwXP5AzCXQQ-38">
          <mxGeometry x="60" width="60" height="40" as="geometry" />
        </mxCell>
        <mxCell id="J6bTJGw2wVwXP5AzCXQQ-41" value="3" style="shape=partialRectangle;html=1;whiteSpace=wrap;connectable=0;overflow=hidden;fillColor=none;top=0;left=0;bottom=0;right=0;" vertex="1" parent="J6bTJGw2wVwXP5AzCXQQ-38">
          <mxGeometry x="120" width="60" height="40" as="geometry" />
        </mxCell>
        <mxCell id="J6bTJGw2wVwXP5AzCXQQ-42" value="4" style="shape=partialRectangle;html=1;whiteSpace=wrap;connectable=0;overflow=hidden;fillColor=none;top=0;left=0;bottom=0;right=0;" vertex="1" parent="J6bTJGw2wVwXP5AzCXQQ-38">
          <mxGeometry x="180" width="60" height="40" as="geometry" />
        </mxCell>
        <mxCell id="J6bTJGw2wVwXP5AzCXQQ-43" value="5" style="shape=partialRectangle;html=1;whiteSpace=wrap;connectable=0;overflow=hidden;fillColor=none;top=0;left=0;bottom=0;right=0;" vertex="1" parent="J6bTJGw2wVwXP5AzCXQQ-38">
          <mxGeometry x="240" width="60" height="40" as="geometry" />
        </mxCell>
        <mxCell id="J6bTJGw2wVwXP5AzCXQQ-44" value="5" style="shape=partialRectangle;html=1;whiteSpace=wrap;connectable=0;overflow=hidden;fillColor=none;top=0;left=0;bottom=0;right=0;" vertex="1" parent="J6bTJGw2wVwXP5AzCXQQ-38">
          <mxGeometry x="300" width="60" height="40" as="geometry" />
        </mxCell>
        <mxCell id="J6bTJGw2wVwXP5AzCXQQ-45" value="5" style="shape=partialRectangle;html=1;whiteSpace=wrap;connectable=0;overflow=hidden;fillColor=none;top=0;left=0;bottom=0;right=0;" vertex="1" parent="J6bTJGw2wVwXP5AzCXQQ-38">
          <mxGeometry x="360" width="60" height="40" as="geometry" />
        </mxCell>
        <mxCell id="J6bTJGw2wVwXP5AzCXQQ-46" value="5" style="shape=partialRectangle;html=1;whiteSpace=wrap;connectable=0;overflow=hidden;fillColor=none;top=0;left=0;bottom=0;right=0;" vertex="1" parent="J6bTJGw2wVwXP5AzCXQQ-38">
          <mxGeometry x="420" width="60" height="40" as="geometry" />
        </mxCell>
        <mxCell id="J6bTJGw2wVwXP5AzCXQQ-47" value="" style="shape=table;html=1;whiteSpace=wrap;startSize=0;container=1;collapsible=0;childLayout=tableLayout;" vertex="1" parent="1">
          <mxGeometry x="230" y="660" width="480" height="40" as="geometry" />
        </mxCell>
        <mxCell id="J6bTJGw2wVwXP5AzCXQQ-48" value="" style="shape=partialRectangle;html=1;whiteSpace=wrap;collapsible=0;dropTarget=0;pointerEvents=0;fillColor=none;top=0;left=0;bottom=0;right=0;points=[[0,0.5],[1,0.5]];portConstraint=eastwest;" vertex="1" parent="J6bTJGw2wVwXP5AzCXQQ-47">
          <mxGeometry width="480" height="40" as="geometry" />
        </mxCell>
        <mxCell id="J6bTJGw2wVwXP5AzCXQQ-49" value="0" style="shape=partialRectangle;html=1;whiteSpace=wrap;connectable=0;overflow=hidden;fillColor=none;top=0;left=0;bottom=0;right=0;" vertex="1" parent="J6bTJGw2wVwXP5AzCXQQ-48">
          <mxGeometry width="60" height="40" as="geometry" />
        </mxCell>
        <mxCell id="J6bTJGw2wVwXP5AzCXQQ-50" value="2" style="shape=partialRectangle;html=1;whiteSpace=wrap;connectable=0;overflow=hidden;fillColor=none;top=0;left=0;bottom=0;right=0;" vertex="1" parent="J6bTJGw2wVwXP5AzCXQQ-48">
          <mxGeometry x="60" width="60" height="40" as="geometry" />
        </mxCell>
        <mxCell id="J6bTJGw2wVwXP5AzCXQQ-51" value="3" style="shape=partialRectangle;html=1;whiteSpace=wrap;connectable=0;overflow=hidden;fillColor=none;top=0;left=0;bottom=0;right=0;" vertex="1" parent="J6bTJGw2wVwXP5AzCXQQ-48">
          <mxGeometry x="120" width="60" height="40" as="geometry" />
        </mxCell>
        <mxCell id="J6bTJGw2wVwXP5AzCXQQ-52" value="3" style="shape=partialRectangle;html=1;whiteSpace=wrap;connectable=0;overflow=hidden;fillColor=none;top=0;left=0;bottom=0;right=0;" vertex="1" parent="J6bTJGw2wVwXP5AzCXQQ-48">
          <mxGeometry x="180" width="60" height="40" as="geometry" />
        </mxCell>
        <mxCell id="J6bTJGw2wVwXP5AzCXQQ-53" value="5" style="shape=partialRectangle;html=1;whiteSpace=wrap;connectable=0;overflow=hidden;fillColor=none;top=0;left=0;bottom=0;right=0;" vertex="1" parent="J6bTJGw2wVwXP5AzCXQQ-48">
          <mxGeometry x="240" width="60" height="40" as="geometry" />
        </mxCell>
        <mxCell id="J6bTJGw2wVwXP5AzCXQQ-54" value="5" style="shape=partialRectangle;html=1;whiteSpace=wrap;connectable=0;overflow=hidden;fillColor=none;top=0;left=0;bottom=0;right=0;" vertex="1" parent="J6bTJGw2wVwXP5AzCXQQ-48">
          <mxGeometry x="300" width="60" height="40" as="geometry" />
        </mxCell>
        <mxCell id="J6bTJGw2wVwXP5AzCXQQ-55" value="5" style="shape=partialRectangle;html=1;whiteSpace=wrap;connectable=0;overflow=hidden;fillColor=none;top=0;left=0;bottom=0;right=0;" vertex="1" parent="J6bTJGw2wVwXP5AzCXQQ-48">
          <mxGeometry x="360" width="60" height="40" as="geometry" />
        </mxCell>
        <mxCell id="J6bTJGw2wVwXP5AzCXQQ-56" value="6" style="shape=partialRectangle;html=1;whiteSpace=wrap;connectable=0;overflow=hidden;fillColor=none;top=0;left=0;bottom=0;right=0;" vertex="1" parent="J6bTJGw2wVwXP5AzCXQQ-48">
          <mxGeometry x="420" width="60" height="40" as="geometry" />
        </mxCell>
        <mxCell id="J6bTJGw2wVwXP5AzCXQQ-57" value="" style="shape=table;html=1;whiteSpace=wrap;startSize=0;container=1;collapsible=0;childLayout=tableLayout;" vertex="1" parent="1">
          <mxGeometry x="720" y="660" width="360" height="40" as="geometry" />
        </mxCell>
        <mxCell id="J6bTJGw2wVwXP5AzCXQQ-58" value="" style="shape=partialRectangle;html=1;whiteSpace=wrap;collapsible=0;dropTarget=0;pointerEvents=0;fillColor=none;top=0;left=0;bottom=0;right=0;points=[[0,0.5],[1,0.5]];portConstraint=eastwest;" vertex="1" parent="J6bTJGw2wVwXP5AzCXQQ-57">
          <mxGeometry width="360" height="40" as="geometry" />
        </mxCell>
        <mxCell id="J6bTJGw2wVwXP5AzCXQQ-59" value="" style="shape=partialRectangle;html=1;whiteSpace=wrap;connectable=0;overflow=hidden;fillColor=none;top=0;left=0;bottom=0;right=0;" vertex="1" parent="J6bTJGw2wVwXP5AzCXQQ-58">
          <mxGeometry width="60" height="40" as="geometry" />
        </mxCell>
        <mxCell id="J6bTJGw2wVwXP5AzCXQQ-60" value="" style="shape=partialRectangle;html=1;whiteSpace=wrap;connectable=0;overflow=hidden;fillColor=none;top=0;left=0;bottom=0;right=0;" vertex="1" parent="J6bTJGw2wVwXP5AzCXQQ-58">
          <mxGeometry x="60" width="60" height="40" as="geometry" />
        </mxCell>
        <mxCell id="J6bTJGw2wVwXP5AzCXQQ-61" value="" style="shape=partialRectangle;html=1;whiteSpace=wrap;connectable=0;overflow=hidden;fillColor=none;top=0;left=0;bottom=0;right=0;" vertex="1" parent="J6bTJGw2wVwXP5AzCXQQ-58">
          <mxGeometry x="120" width="60" height="40" as="geometry" />
        </mxCell>
        <mxCell id="J6bTJGw2wVwXP5AzCXQQ-62" value="3" style="shape=partialRectangle;html=1;whiteSpace=wrap;connectable=0;overflow=hidden;fillColor=none;top=0;left=0;bottom=0;right=0;" vertex="1" parent="J6bTJGw2wVwXP5AzCXQQ-58">
          <mxGeometry x="180" width="60" height="40" as="geometry" />
        </mxCell>
        <mxCell id="J6bTJGw2wVwXP5AzCXQQ-63" value="" style="shape=partialRectangle;html=1;whiteSpace=wrap;connectable=0;overflow=hidden;fillColor=none;top=0;left=0;bottom=0;right=0;" vertex="1" parent="J6bTJGw2wVwXP5AzCXQQ-58">
          <mxGeometry x="240" width="60" height="40" as="geometry" />
        </mxCell>
        <mxCell id="J6bTJGw2wVwXP5AzCXQQ-64" value="7" style="shape=partialRectangle;html=1;whiteSpace=wrap;connectable=0;overflow=hidden;fillColor=none;top=0;left=0;bottom=0;right=0;" vertex="1" parent="J6bTJGw2wVwXP5AzCXQQ-58">
          <mxGeometry x="300" width="60" height="40" as="geometry" />
        </mxCell>
        <mxCell id="J6bTJGw2wVwXP5AzCXQQ-65" value="" style="shape=table;html=1;whiteSpace=wrap;startSize=0;container=1;collapsible=0;childLayout=tableLayout;" vertex="1" parent="1">
          <mxGeometry x="230" y="760" width="480" height="40" as="geometry" />
        </mxCell>
        <mxCell id="J6bTJGw2wVwXP5AzCXQQ-66" value="" style="shape=partialRectangle;html=1;whiteSpace=wrap;collapsible=0;dropTarget=0;pointerEvents=0;fillColor=none;top=0;left=0;bottom=0;right=0;points=[[0,0.5],[1,0.5]];portConstraint=eastwest;" vertex="1" parent="J6bTJGw2wVwXP5AzCXQQ-65">
          <mxGeometry width="480" height="40" as="geometry" />
        </mxCell>
        <mxCell id="J6bTJGw2wVwXP5AzCXQQ-67" value="0" style="shape=partialRectangle;html=1;whiteSpace=wrap;connectable=0;overflow=hidden;fillColor=none;top=0;left=0;bottom=0;right=0;" vertex="1" parent="J6bTJGw2wVwXP5AzCXQQ-66">
          <mxGeometry width="60" height="40" as="geometry" />
        </mxCell>
        <mxCell id="J6bTJGw2wVwXP5AzCXQQ-68" value="1" style="shape=partialRectangle;html=1;whiteSpace=wrap;connectable=0;overflow=hidden;fillColor=none;top=0;left=0;bottom=0;right=0;" vertex="1" parent="J6bTJGw2wVwXP5AzCXQQ-66">
          <mxGeometry x="60" width="60" height="40" as="geometry" />
        </mxCell>
        <mxCell id="J6bTJGw2wVwXP5AzCXQQ-69" value="3" style="shape=partialRectangle;html=1;whiteSpace=wrap;connectable=0;overflow=hidden;fillColor=none;top=0;left=0;bottom=0;right=0;" vertex="1" parent="J6bTJGw2wVwXP5AzCXQQ-66">
          <mxGeometry x="120" width="60" height="40" as="geometry" />
        </mxCell>
        <mxCell id="J6bTJGw2wVwXP5AzCXQQ-70" value="3" style="shape=partialRectangle;html=1;whiteSpace=wrap;connectable=0;overflow=hidden;fillColor=none;top=0;left=0;bottom=0;right=0;" vertex="1" parent="J6bTJGw2wVwXP5AzCXQQ-66">
          <mxGeometry x="180" width="60" height="40" as="geometry" />
        </mxCell>
        <mxCell id="J6bTJGw2wVwXP5AzCXQQ-71" value="5" style="shape=partialRectangle;html=1;whiteSpace=wrap;connectable=0;overflow=hidden;fillColor=none;top=0;left=0;bottom=0;right=0;" vertex="1" parent="J6bTJGw2wVwXP5AzCXQQ-66">
          <mxGeometry x="240" width="60" height="40" as="geometry" />
        </mxCell>
        <mxCell id="J6bTJGw2wVwXP5AzCXQQ-72" value="5" style="shape=partialRectangle;html=1;whiteSpace=wrap;connectable=0;overflow=hidden;fillColor=none;top=0;left=0;bottom=0;right=0;" vertex="1" parent="J6bTJGw2wVwXP5AzCXQQ-66">
          <mxGeometry x="300" width="60" height="40" as="geometry" />
        </mxCell>
        <mxCell id="J6bTJGw2wVwXP5AzCXQQ-73" value="5" style="shape=partialRectangle;html=1;whiteSpace=wrap;connectable=0;overflow=hidden;fillColor=none;top=0;left=0;bottom=0;right=0;" vertex="1" parent="J6bTJGw2wVwXP5AzCXQQ-66">
          <mxGeometry x="360" width="60" height="40" as="geometry" />
        </mxCell>
        <mxCell id="J6bTJGw2wVwXP5AzCXQQ-74" value="6" style="shape=partialRectangle;html=1;whiteSpace=wrap;connectable=0;overflow=hidden;fillColor=none;top=0;left=0;bottom=0;right=0;" vertex="1" parent="J6bTJGw2wVwXP5AzCXQQ-66">
          <mxGeometry x="420" width="60" height="40" as="geometry" />
        </mxCell>
        <mxCell id="J6bTJGw2wVwXP5AzCXQQ-83" value="" style="shape=table;html=1;whiteSpace=wrap;startSize=0;container=1;collapsible=0;childLayout=tableLayout;" vertex="1" parent="1">
          <mxGeometry x="720" y="760" width="360" height="40" as="geometry" />
        </mxCell>
        <mxCell id="J6bTJGw2wVwXP5AzCXQQ-84" value="" style="shape=partialRectangle;html=1;whiteSpace=wrap;collapsible=0;dropTarget=0;pointerEvents=0;fillColor=none;top=0;left=0;bottom=0;right=0;points=[[0,0.5],[1,0.5]];portConstraint=eastwest;" vertex="1" parent="J6bTJGw2wVwXP5AzCXQQ-83">
          <mxGeometry width="360" height="40" as="geometry" />
        </mxCell>
        <mxCell id="J6bTJGw2wVwXP5AzCXQQ-85" value="" style="shape=partialRectangle;html=1;whiteSpace=wrap;connectable=0;overflow=hidden;fillColor=none;top=0;left=0;bottom=0;right=0;" vertex="1" parent="J6bTJGw2wVwXP5AzCXQQ-84">
          <mxGeometry width="60" height="40" as="geometry" />
        </mxCell>
        <mxCell id="J6bTJGw2wVwXP5AzCXQQ-86" value="1" style="shape=partialRectangle;html=1;whiteSpace=wrap;connectable=0;overflow=hidden;fillColor=none;top=0;left=0;bottom=0;right=0;" vertex="1" parent="J6bTJGw2wVwXP5AzCXQQ-84">
          <mxGeometry x="60" width="60" height="40" as="geometry" />
        </mxCell>
        <mxCell id="J6bTJGw2wVwXP5AzCXQQ-87" value="" style="shape=partialRectangle;html=1;whiteSpace=wrap;connectable=0;overflow=hidden;fillColor=none;top=0;left=0;bottom=0;right=0;" vertex="1" parent="J6bTJGw2wVwXP5AzCXQQ-84">
          <mxGeometry x="120" width="60" height="40" as="geometry" />
        </mxCell>
        <mxCell id="J6bTJGw2wVwXP5AzCXQQ-88" value="3" style="shape=partialRectangle;html=1;whiteSpace=wrap;connectable=0;overflow=hidden;fillColor=none;top=0;left=0;bottom=0;right=0;" vertex="1" parent="J6bTJGw2wVwXP5AzCXQQ-84">
          <mxGeometry x="180" width="60" height="40" as="geometry" />
        </mxCell>
        <mxCell id="J6bTJGw2wVwXP5AzCXQQ-89" value="" style="shape=partialRectangle;html=1;whiteSpace=wrap;connectable=0;overflow=hidden;fillColor=none;top=0;left=0;bottom=0;right=0;" vertex="1" parent="J6bTJGw2wVwXP5AzCXQQ-84">
          <mxGeometry x="240" width="60" height="40" as="geometry" />
        </mxCell>
        <mxCell id="J6bTJGw2wVwXP5AzCXQQ-90" value="7" style="shape=partialRectangle;html=1;whiteSpace=wrap;connectable=0;overflow=hidden;fillColor=none;top=0;left=0;bottom=0;right=0;" vertex="1" parent="J6bTJGw2wVwXP5AzCXQQ-84">
          <mxGeometry x="300" width="60" height="40" as="geometry" />
        </mxCell>
        <mxCell id="J6bTJGw2wVwXP5AzCXQQ-91" value="" style="shape=table;html=1;whiteSpace=wrap;startSize=0;container=1;collapsible=0;childLayout=tableLayout;" vertex="1" parent="1">
          <mxGeometry x="230" y="840" width="480" height="40" as="geometry" />
        </mxCell>
        <mxCell id="J6bTJGw2wVwXP5AzCXQQ-92" value="" style="shape=partialRectangle;html=1;whiteSpace=wrap;collapsible=0;dropTarget=0;pointerEvents=0;fillColor=none;top=0;left=0;bottom=0;right=0;points=[[0,0.5],[1,0.5]];portConstraint=eastwest;" vertex="1" parent="J6bTJGw2wVwXP5AzCXQQ-91">
          <mxGeometry width="480" height="40" as="geometry" />
        </mxCell>
        <mxCell id="J6bTJGw2wVwXP5AzCXQQ-93" value="0" style="shape=partialRectangle;html=1;whiteSpace=wrap;connectable=0;overflow=hidden;fillColor=none;top=0;left=0;bottom=0;right=0;" vertex="1" parent="J6bTJGw2wVwXP5AzCXQQ-92">
          <mxGeometry width="60" height="40" as="geometry" />
        </mxCell>
        <mxCell id="J6bTJGw2wVwXP5AzCXQQ-94" value="1" style="shape=partialRectangle;html=1;whiteSpace=wrap;connectable=0;overflow=hidden;fillColor=none;top=0;left=0;bottom=0;right=0;" vertex="1" parent="J6bTJGw2wVwXP5AzCXQQ-92">
          <mxGeometry x="60" width="60" height="40" as="geometry" />
        </mxCell>
        <mxCell id="J6bTJGw2wVwXP5AzCXQQ-95" value="3" style="shape=partialRectangle;html=1;whiteSpace=wrap;connectable=0;overflow=hidden;fillColor=none;top=0;left=0;bottom=0;right=0;" vertex="1" parent="J6bTJGw2wVwXP5AzCXQQ-92">
          <mxGeometry x="120" width="60" height="40" as="geometry" />
        </mxCell>
        <mxCell id="J6bTJGw2wVwXP5AzCXQQ-96" value="3" style="shape=partialRectangle;html=1;whiteSpace=wrap;connectable=0;overflow=hidden;fillColor=none;top=0;left=0;bottom=0;right=0;" vertex="1" parent="J6bTJGw2wVwXP5AzCXQQ-92">
          <mxGeometry x="180" width="60" height="40" as="geometry" />
        </mxCell>
        <mxCell id="J6bTJGw2wVwXP5AzCXQQ-97" value="4" style="shape=partialRectangle;html=1;whiteSpace=wrap;connectable=0;overflow=hidden;fillColor=none;top=0;left=0;bottom=0;right=0;" vertex="1" parent="J6bTJGw2wVwXP5AzCXQQ-92">
          <mxGeometry x="240" width="60" height="40" as="geometry" />
        </mxCell>
        <mxCell id="J6bTJGw2wVwXP5AzCXQQ-98" value="5" style="shape=partialRectangle;html=1;whiteSpace=wrap;connectable=0;overflow=hidden;fillColor=none;top=0;left=0;bottom=0;right=0;" vertex="1" parent="J6bTJGw2wVwXP5AzCXQQ-92">
          <mxGeometry x="300" width="60" height="40" as="geometry" />
        </mxCell>
        <mxCell id="J6bTJGw2wVwXP5AzCXQQ-99" value="5" style="shape=partialRectangle;html=1;whiteSpace=wrap;connectable=0;overflow=hidden;fillColor=none;top=0;left=0;bottom=0;right=0;" vertex="1" parent="J6bTJGw2wVwXP5AzCXQQ-92">
          <mxGeometry x="360" width="60" height="40" as="geometry" />
        </mxCell>
        <mxCell id="J6bTJGw2wVwXP5AzCXQQ-100" value="6" style="shape=partialRectangle;html=1;whiteSpace=wrap;connectable=0;overflow=hidden;fillColor=none;top=0;left=0;bottom=0;right=0;" vertex="1" parent="J6bTJGw2wVwXP5AzCXQQ-92">
          <mxGeometry x="420" width="60" height="40" as="geometry" />
        </mxCell>
        <mxCell id="J6bTJGw2wVwXP5AzCXQQ-101" value="" style="shape=table;html=1;whiteSpace=wrap;startSize=0;container=1;collapsible=0;childLayout=tableLayout;" vertex="1" parent="1">
          <mxGeometry x="720" y="840" width="360" height="40" as="geometry" />
        </mxCell>
        <mxCell id="J6bTJGw2wVwXP5AzCXQQ-102" value="" style="shape=partialRectangle;html=1;whiteSpace=wrap;collapsible=0;dropTarget=0;pointerEvents=0;fillColor=none;top=0;left=0;bottom=0;right=0;points=[[0,0.5],[1,0.5]];portConstraint=eastwest;" vertex="1" parent="J6bTJGw2wVwXP5AzCXQQ-101">
          <mxGeometry width="360" height="40" as="geometry" />
        </mxCell>
        <mxCell id="J6bTJGw2wVwXP5AzCXQQ-103" value="" style="shape=partialRectangle;html=1;whiteSpace=wrap;connectable=0;overflow=hidden;fillColor=none;top=0;left=0;bottom=0;right=0;" vertex="1" parent="J6bTJGw2wVwXP5AzCXQQ-102">
          <mxGeometry width="60" height="40" as="geometry" />
        </mxCell>
        <mxCell id="J6bTJGw2wVwXP5AzCXQQ-104" value="1" style="shape=partialRectangle;html=1;whiteSpace=wrap;connectable=0;overflow=hidden;fillColor=none;top=0;left=0;bottom=0;right=0;" vertex="1" parent="J6bTJGw2wVwXP5AzCXQQ-102">
          <mxGeometry x="60" width="60" height="40" as="geometry" />
        </mxCell>
        <mxCell id="J6bTJGw2wVwXP5AzCXQQ-105" value="" style="shape=partialRectangle;html=1;whiteSpace=wrap;connectable=0;overflow=hidden;fillColor=none;top=0;left=0;bottom=0;right=0;" vertex="1" parent="J6bTJGw2wVwXP5AzCXQQ-102">
          <mxGeometry x="120" width="60" height="40" as="geometry" />
        </mxCell>
        <mxCell id="J6bTJGw2wVwXP5AzCXQQ-106" value="3" style="shape=partialRectangle;html=1;whiteSpace=wrap;connectable=0;overflow=hidden;fillColor=none;top=0;left=0;bottom=0;right=0;" vertex="1" parent="J6bTJGw2wVwXP5AzCXQQ-102">
          <mxGeometry x="180" width="60" height="40" as="geometry" />
        </mxCell>
        <mxCell id="J6bTJGw2wVwXP5AzCXQQ-107" value="4" style="shape=partialRectangle;html=1;whiteSpace=wrap;connectable=0;overflow=hidden;fillColor=none;top=0;left=0;bottom=0;right=0;" vertex="1" parent="J6bTJGw2wVwXP5AzCXQQ-102">
          <mxGeometry x="240" width="60" height="40" as="geometry" />
        </mxCell>
        <mxCell id="J6bTJGw2wVwXP5AzCXQQ-108" value="7" style="shape=partialRectangle;html=1;whiteSpace=wrap;connectable=0;overflow=hidden;fillColor=none;top=0;left=0;bottom=0;right=0;" vertex="1" parent="J6bTJGw2wVwXP5AzCXQQ-102">
          <mxGeometry x="300" width="60" height="40" as="geometry" />
        </mxCell>
        <mxCell id="J6bTJGw2wVwXP5AzCXQQ-109" value="" style="shape=table;html=1;whiteSpace=wrap;startSize=0;container=1;collapsible=0;childLayout=tableLayout;" vertex="1" parent="1">
          <mxGeometry x="230" y="920" width="480" height="40" as="geometry" />
        </mxCell>
        <mxCell id="J6bTJGw2wVwXP5AzCXQQ-110" value="" style="shape=partialRectangle;html=1;whiteSpace=wrap;collapsible=0;dropTarget=0;pointerEvents=0;fillColor=none;top=0;left=0;bottom=0;right=0;points=[[0,0.5],[1,0.5]];portConstraint=eastwest;" vertex="1" parent="J6bTJGw2wVwXP5AzCXQQ-109">
          <mxGeometry width="480" height="40" as="geometry" />
        </mxCell>
        <mxCell id="J6bTJGw2wVwXP5AzCXQQ-111" value="0" style="shape=partialRectangle;html=1;whiteSpace=wrap;connectable=0;overflow=hidden;fillColor=none;top=0;left=0;bottom=0;right=0;" vertex="1" parent="J6bTJGw2wVwXP5AzCXQQ-110">
          <mxGeometry width="60" height="40" as="geometry" />
        </mxCell>
        <mxCell id="J6bTJGw2wVwXP5AzCXQQ-112" value="1" style="shape=partialRectangle;html=1;whiteSpace=wrap;connectable=0;overflow=hidden;fillColor=none;top=0;left=0;bottom=0;right=0;" vertex="1" parent="J6bTJGw2wVwXP5AzCXQQ-110">
          <mxGeometry x="60" width="60" height="40" as="geometry" />
        </mxCell>
        <mxCell id="J6bTJGw2wVwXP5AzCXQQ-113" value="2" style="shape=partialRectangle;html=1;whiteSpace=wrap;connectable=0;overflow=hidden;fillColor=none;top=0;left=0;bottom=0;right=0;" vertex="1" parent="J6bTJGw2wVwXP5AzCXQQ-110">
          <mxGeometry x="120" width="60" height="40" as="geometry" />
        </mxCell>
        <mxCell id="J6bTJGw2wVwXP5AzCXQQ-114" value="3" style="shape=partialRectangle;html=1;whiteSpace=wrap;connectable=0;overflow=hidden;fillColor=none;top=0;left=0;bottom=0;right=0;" vertex="1" parent="J6bTJGw2wVwXP5AzCXQQ-110">
          <mxGeometry x="180" width="60" height="40" as="geometry" />
        </mxCell>
        <mxCell id="J6bTJGw2wVwXP5AzCXQQ-115" value="4" style="shape=partialRectangle;html=1;whiteSpace=wrap;connectable=0;overflow=hidden;fillColor=none;top=0;left=0;bottom=0;right=0;" vertex="1" parent="J6bTJGw2wVwXP5AzCXQQ-110">
          <mxGeometry x="240" width="50" height="40" as="geometry" />
        </mxCell>
        <mxCell id="J6bTJGw2wVwXP5AzCXQQ-116" value="5" style="shape=partialRectangle;html=1;whiteSpace=wrap;connectable=0;overflow=hidden;fillColor=none;top=0;left=0;bottom=0;right=0;" vertex="1" parent="J6bTJGw2wVwXP5AzCXQQ-110">
          <mxGeometry x="290" width="70" height="40" as="geometry" />
        </mxCell>
        <mxCell id="J6bTJGw2wVwXP5AzCXQQ-117" value="5" style="shape=partialRectangle;html=1;whiteSpace=wrap;connectable=0;overflow=hidden;fillColor=none;top=0;left=0;bottom=0;right=0;" vertex="1" parent="J6bTJGw2wVwXP5AzCXQQ-110">
          <mxGeometry x="360" width="60" height="40" as="geometry" />
        </mxCell>
        <mxCell id="J6bTJGw2wVwXP5AzCXQQ-118" value="6" style="shape=partialRectangle;html=1;whiteSpace=wrap;connectable=0;overflow=hidden;fillColor=none;top=0;left=0;bottom=0;right=0;" vertex="1" parent="J6bTJGw2wVwXP5AzCXQQ-110">
          <mxGeometry x="420" width="60" height="40" as="geometry" />
        </mxCell>
        <mxCell id="J6bTJGw2wVwXP5AzCXQQ-127" value="" style="shape=table;html=1;whiteSpace=wrap;startSize=0;container=1;collapsible=0;childLayout=tableLayout;" vertex="1" parent="1">
          <mxGeometry x="720" y="920" width="360" height="40" as="geometry" />
        </mxCell>
        <mxCell id="J6bTJGw2wVwXP5AzCXQQ-128" value="" style="shape=partialRectangle;html=1;whiteSpace=wrap;collapsible=0;dropTarget=0;pointerEvents=0;fillColor=none;top=0;left=0;bottom=0;right=0;points=[[0,0.5],[1,0.5]];portConstraint=eastwest;" vertex="1" parent="J6bTJGw2wVwXP5AzCXQQ-127">
          <mxGeometry width="360" height="40" as="geometry" />
        </mxCell>
        <mxCell id="J6bTJGw2wVwXP5AzCXQQ-129" value="" style="shape=partialRectangle;html=1;whiteSpace=wrap;connectable=0;overflow=hidden;fillColor=none;top=0;left=0;bottom=0;right=0;" vertex="1" parent="J6bTJGw2wVwXP5AzCXQQ-128">
          <mxGeometry width="60" height="40" as="geometry" />
        </mxCell>
        <mxCell id="J6bTJGw2wVwXP5AzCXQQ-130" value="1" style="shape=partialRectangle;html=1;whiteSpace=wrap;connectable=0;overflow=hidden;fillColor=none;top=0;left=0;bottom=0;right=0;" vertex="1" parent="J6bTJGw2wVwXP5AzCXQQ-128">
          <mxGeometry x="60" width="60" height="40" as="geometry" />
        </mxCell>
        <mxCell id="J6bTJGw2wVwXP5AzCXQQ-131" value="2" style="shape=partialRectangle;html=1;whiteSpace=wrap;connectable=0;overflow=hidden;fillColor=none;top=0;left=0;bottom=0;right=0;" vertex="1" parent="J6bTJGw2wVwXP5AzCXQQ-128">
          <mxGeometry x="120" width="60" height="40" as="geometry" />
        </mxCell>
        <mxCell id="J6bTJGw2wVwXP5AzCXQQ-132" value="3" style="shape=partialRectangle;html=1;whiteSpace=wrap;connectable=0;overflow=hidden;fillColor=none;top=0;left=0;bottom=0;right=0;" vertex="1" parent="J6bTJGw2wVwXP5AzCXQQ-128">
          <mxGeometry x="180" width="60" height="40" as="geometry" />
        </mxCell>
        <mxCell id="J6bTJGw2wVwXP5AzCXQQ-133" value="4" style="shape=partialRectangle;html=1;whiteSpace=wrap;connectable=0;overflow=hidden;fillColor=none;top=0;left=0;bottom=0;right=0;" vertex="1" parent="J6bTJGw2wVwXP5AzCXQQ-128">
          <mxGeometry x="240" width="60" height="40" as="geometry" />
        </mxCell>
        <mxCell id="J6bTJGw2wVwXP5AzCXQQ-134" value="7" style="shape=partialRectangle;html=1;whiteSpace=wrap;connectable=0;overflow=hidden;fillColor=none;top=0;left=0;bottom=0;right=0;" vertex="1" parent="J6bTJGw2wVwXP5AzCXQQ-128">
          <mxGeometry x="300" width="60" height="40" as="geometry" />
        </mxCell>
      </root>
    </mxGraphModel>
  </diagram>
</mxfile>
